<?xml version="1.0" standalone="no"?>
<!DOCTYPE svg PUBLIC "-//W3C//DTD SVG 20010904//EN"
 "http://www.w3.org/TR/2001/REC-SVG-20010904/DTD/svg10.dtd">
<svg version="1.0" xmlns="http://www.w3.org/2000/svg"
 width="1280.000000pt" height="1280.000000pt" viewBox="0 0 1280.000000 1280.000000"
 preserveAspectRatio="xMidYMid meet">
<metadata>
Created by potrace 1.16, written by Peter Selinger 2001-2019
</metadata>
<g transform="translate(0.000000,1280.000000) scale(0.100000,-0.100000)"
fill="#000000" stroke="none">
<path d="M6320 9864 c-46 -9 -145 -47 -185 -71 -62 -39 -4680 -4657 -4726
-4727 -99 -151 -106 -356 -17 -515 23 -43 208 -234 767 -792 798 -797 778
-780 922 -814 116 -27 214 -16 329 37 61 28 154 120 1528 1492 l1462 1461
1463 -1461 c1374 -1374 1466 -1464 1528 -1493 144 -67 294 -66 437 4 75 36
100 60 818 779 677 677 743 747 772 806 39 83 51 136 52 231 0 96 -26 185 -79
265 -46 71 -4664 4688 -4726 4726 -71 44 -154 69 -240 73 -44 2 -91 2 -105 -1z"/>
</g>
</svg>
