<svg id="visual" viewBox="0 0 900 600" width="900" height="600" xmlns="http://www.w3.org/2000/svg" xmlns:xlink="http://www.w3.org/1999/xlink" version="1.1"><rect x="0" y="0" width="900" height="600" fill="#002233"></rect><path d="M0 490L8.8 469.2C17.7 448.3 35.3 406.7 53 382.8C70.7 359 88.3 353 106 351C123.7 349 141.3 351 159 375.5C176.7 400 194.3 447 212 446.2C229.7 445.3 247.3 396.7 265 380.3C282.7 364 300.3 380 318 385.2C335.7 390.3 353.3 384.7 371 393.5C388.7 402.3 406.3 425.7 423.8 444.2C441.3 462.7 458.7 476.3 476.2 477.7C493.7 479 511.3 468 529 462C546.7 456 564.3 455 582 440.8C599.7 426.7 617.3 399.3 635 382.3C652.7 365.3 670.3 358.7 688 374C705.7 389.3 723.3 426.7 741 425.3C758.7 424 776.3 384 794 374.3C811.7 364.7 829.3 385.3 847 389.7C864.7 394 882.3 382 891.2 376L900 370L900 601L891.2 601C882.3 601 864.7 601 847 601C829.3 601 811.7 601 794 601C776.3 601 758.7 601 741 601C723.3 601 705.7 601 688 601C670.3 601 652.7 601 635 601C617.3 601 599.7 601 582 601C564.3 601 546.7 601 529 601C511.3 601 493.7 601 476.2 601C458.7 601 441.3 601 423.8 601C406.3 601 388.7 601 371 601C353.3 601 335.7 601 318 601C300.3 601 282.7 601 265 601C247.3 601 229.7 601 212 601C194.3 601 176.7 601 159 601C141.3 601 123.7 601 106 601C88.3 601 70.7 601 53 601C35.3 601 17.7 601 8.8 601L0 601Z" fill="#0066FF" stroke-linecap="round" stroke-linejoin="miter"></path></svg>